<?xml version="1.0" standalone="no"?>
<!DOCTYPE svg PUBLIC "-//W3C//DTD SVG 20010904//EN"
 "http://www.w3.org/TR/2001/REC-SVG-20010904/DTD/svg10.dtd">
<svg version="1.0" xmlns="http://www.w3.org/2000/svg"
 width="165.000000pt" height="165.000000pt" viewBox="0 0 165.000000 165.000000"
 preserveAspectRatio="xMidYMid meet">
<metadata>
Created by potrace 1.14, written by Peter Selinger 2001-2017
</metadata>
<g transform="translate(0.000000,165.000000) scale(0.100000,-0.100000)"
fill="#000000" stroke="none">
<path d="M130 1345 c0 -6 16 -26 36 -45 20 -19 51 -50 69 -67 18 -18 38 -33
44 -33 7 0 9 -4 6 -10 -3 -5 1 -10 10 -10 9 0 14 -3 12 -7 -2 -5 4 -16 15 -25
10 -10 18 -15 18 -12 0 3 17 -12 38 -33 20 -21 49 -44 64 -52 15 -8 26 -17 25
-20 -2 -7 60 -71 69 -71 3 0 31 -25 61 -55 l56 -55 -13 -45 c-7 -25 -16 -45
-20 -45 -5 0 -16 -20 -26 -45 -9 -25 -50 -110 -90 -190 -40 -80 -70 -145 -66
-145 4 0 1 -4 -6 -9 -7 -4 -14 -14 -16 -22 -1 -8 -10 -26 -20 -41 -10 -15 -19
-33 -20 -41 -1 -8 -7 -21 -12 -28 -16 -21 -49 -93 -46 -101 1 -5 -2 -8 -7 -8
-6 0 -8 -34 -2 -48 1 -4 22 14 71 61 22 21 40 35 40 31 0 -4 10 6 22 22 21 27
46 48 58 49 3 0 36 30 73 68 37 37 70 67 72 67 3 0 27 21 53 48 106 103 150
142 162 142 6 0 8 5 5 10 -3 6 -2 10 3 10 4 0 17 8 28 18 10 9 37 33 59 51 22
19 39 39 38 43 -2 4 1 8 7 8 5 0 23 14 40 30 17 17 33 30 35 30 9 0 65 60 65
70 0 5 6 10 13 10 25 0 38 41 37 113 -1 40 -1 75 0 80 1 4 3 13 4 19 1 16 51
23 156 22 111 -1 124 11 75 63 -19 20 -35 41 -35 46 0 4 -4 6 -8 3 -5 -3 -16
6 -26 20 -11 13 -22 24 -27 24 -11 0 -59 49 -59 60 0 6 -6 10 -13 10 -7 0 -18
5 -25 12 -21 21 -56 15 -84 -14 -15 -15 -25 -28 -22 -28 3 0 -1 -6 -8 -14 -7
-8 -16 -12 -19 -10 -4 2 -21 -13 -38 -33 -17 -20 -31 -33 -31 -29 0 4 -19 -13
-43 -36 -23 -24 -52 -51 -64 -61 -24 -20 -14 -25 -107 55 -17 15 -34 28 -38
28 -5 0 -8 7 -8 15 0 8 -3 15 -7 15 -5 0 -25 16 -45 35 -20 19 -39 35 -42 35
-10 0 -46 39 -46 50 0 6 -3 10 -7 11 -5 0 -17 3 -28 6 -41 10 -465 8 -465 -2z"/>
</g>
</svg>
